HIERARCHY
ROOT hip
{
  OFFSET 0 0 0
  CHANNELS 6 Xposition Yposition Zposition Zrotation Yrotation Xrotation
  JOINT abdomen
  {
    OFFSET 0 20.6881 -0.73152
    CHANNELS 3 Zrotation Xrotation Yrotation
    JOINT chest
    {
      OFFSET 0 11.7043 -0.48768
      CHANNELS 3 Zrotation Xrotation Yrotation
      JOINT neck
      {
        OFFSET 0 22.1894 -2.19456
        CHANNELS 3 Zrotation Xrotation Yrotation
        JOINT head
        {
          OFFSET -0.24384 7.07133 1.2192
          CHANNELS 3 Zrotation Xrotation Yrotation
          JOINT leftEye
          {
            OFFSET 4.14528 8.04674 8.04672
            CHANNELS 3 Zrotation Xrotation Yrotation
            End Site
            {
              OFFSET 1 0 0
            }
          }
          JOINT rightEye
          {
            OFFSET -3.6576 8.04674 8.04672
            CHANNELS 3 Zrotation Xrotation Yrotation
            End Site
            {
              OFFSET 1 0 0
            }
          }
        }
      }
      JOINT rCollar
      {
        OFFSET -2.68224 19.2634 -4.8768
        CHANNELS 3 Zrotation Xrotation Yrotation
        JOINT rShldr
        {
          OFFSET -8.77824 -1.95073 1.46304
          CHANNELS 3 Zrotation Xrotation Yrotation
          JOINT rForeArm
          {
            OFFSET -28.1742 -1.7115 0.48768
            CHANNELS 3 Zrotation Xrotation Yrotation
            JOINT rHand
            {
              OFFSET -22.5879 0.773209 7.07136
              CHANNELS 3 Zrotation Xrotation Yrotation
              JOINT rThumb1
              {
                OFFSET -1.2192 -0.487915 3.41376
                CHANNELS 3 Zrotation Xrotation Yrotation
                JOINT rThumb2
                {
                  OFFSET -3.37035 -0.52449 3.41376
                  CHANNELS 3 Zrotation Xrotation Yrotation
                  End Site
                  {
                    OFFSET -1.78271 -1.18214 1.43049
                  }
                }
              }
              JOINT rIndex1
              {
                OFFSET -7.75947 0.938293 5.60832
                CHANNELS 3 Zrotation Xrotation Yrotation
                JOINT rIndex2
                {
                  OFFSET -2.54057 -0.884171 1.56538
                  CHANNELS 3 Zrotation Xrotation Yrotation
                  End Site
                  {
                    OFFSET -1.62519 -0.234802 1.16502
                  }
                }
              }
              JOINT rMid1
              {
                OFFSET -8.24714 1.18213 3.41376
                CHANNELS 3 Zrotation Xrotation Yrotation
                JOINT rMid2
                {
                  OFFSET -3.10165 -0.590103 1.0647
                  CHANNELS 3 Zrotation Xrotation Yrotation
                  End Site
                  {
                    OFFSET -2.48547 -0.328903 0.83742
                  }
                }
              }
              JOINT rRing1
              {
                OFFSET -8.82822 0.546677 1.51678
                CHANNELS 3 Zrotation Xrotation Yrotation
                JOINT rRing2
                {
                  OFFSET -2.60934 -0.819778 -0.0198488
                  CHANNELS 3 Zrotation Xrotation Yrotation
                  End Site
                  {
                    OFFSET -2.33842 -0.294052 0.168128
                  }
                }
              }
              JOINT rPinky1
              {
                OFFSET -8.27202 -0.0477905 -0.4584
                CHANNELS 3 Zrotation Xrotation Yrotation
                JOINT rPinky2
                {
                  OFFSET -1.82734 -0.647385 -0.700984
                  CHANNELS 3 Zrotation Xrotation Yrotation
                  End Site
                  {
                    OFFSET -1.69225 -0.51767 -0.607171
                  }
                }
              }
            }
          }
        }
      }
      JOINT lCollar
      {
        OFFSET 2.68224 19.2634 -4.8768
        CHANNELS 3 Zrotation Xrotation Yrotation
        JOINT lShldr
        {
          OFFSET 8.77824 -1.95073 1.46304
          CHANNELS 3 Zrotation Xrotation Yrotation
          JOINT lForeArm
          {
            OFFSET 28.1742 -1.7115 0.48768
            CHANNELS 3 Zrotation Xrotation Yrotation
            JOINT lHand
            {
              OFFSET 22.5879 0.773209 7.07136
              CHANNELS 3 Zrotation Xrotation Yrotation
              JOINT lThumb1
              {
                OFFSET 1.2192 -0.487915 3.41376
                CHANNELS 3 Zrotation Xrotation Yrotation
                JOINT lThumb2
                {
                  OFFSET 3.37035 -0.52449 3.41376
                  CHANNELS 3 Zrotation Xrotation Yrotation
                  End Site
                  {
                    OFFSET 1.78271 -1.18214 1.43049
                  }
                }
              }
              JOINT lIndex1
              {
                OFFSET 7.75947 0.938293 5.60832
                CHANNELS 3 Zrotation Xrotation Yrotation
                JOINT lIndex2
                {
                  OFFSET 2.54057 -0.884171 1.56538
                  CHANNELS 3 Zrotation Xrotation Yrotation
                  End Site
                  {
                    OFFSET 1.62519 -0.234802 1.16502
                  }
                }
              }
              JOINT lMid1
              {
                OFFSET 8.24714 1.18213 3.41376
                CHANNELS 3 Zrotation Xrotation Yrotation
                JOINT lMid2
                {
                  OFFSET 3.10165 -0.590103 1.0647
                  CHANNELS 3 Zrotation Xrotation Yrotation
                  End Site
                  {
                    OFFSET 2.48547 -0.328903 0.83742
                  }
                }
              }
              JOINT lRing1
              {
                OFFSET 8.82822 0.546677 1.51678
                CHANNELS 3 Zrotation Xrotation Yrotation
                JOINT lRing2
                {
                  OFFSET 2.60934 -0.819778 -0.0198488
                  CHANNELS 3 Zrotation Xrotation Yrotation
                  End Site
                  {
                    OFFSET 2.33842 -0.294052 0.168128
                  }
                }
              }
              JOINT lPinky1
              {
                OFFSET 8.27202 -0.0477905 -0.4584
                CHANNELS 3 Zrotation Xrotation Yrotation
                JOINT lPinky2
                {
                  OFFSET 1.82734 -0.647385 -0.700984
                  CHANNELS 3 Zrotation Xrotation Yrotation
                  End Site
                  {
                    OFFSET 1.69225 -0.51767 -0.607171
                  }
                }
              }
            }
          }
        }
      }
    }
  }
  JOINT rButtock
  {
    OFFSET -8.77824 4.35084 1.2192
    CHANNELS 3 Zrotation Xrotation Yrotation
    JOINT rThigh
    {
      OFFSET 0 -1.70687 -2.19456
      CHANNELS 3 Zrotation Xrotation Yrotation
      JOINT rShin
      {
        OFFSET 0 -36.8199 0.73152
        CHANNELS 3 Zrotation Xrotation Yrotation
        JOINT rFoot
        {
          OFFSET 0.73152 -45.1104 -5.12064
          CHANNELS 3 Zrotation Xrotation Yrotation
          End Site
          {
            OFFSET -1.1221 -3.69964 12.103
          }
        }
      }
    }
  }
  JOINT lButtock
  {
    OFFSET 8.77824 4.35084 1.2192
    CHANNELS 3 Zrotation Xrotation Yrotation
    JOINT lThigh
    {
      OFFSET 0 -1.70687 -2.19456
      CHANNELS 3 Zrotation Xrotation Yrotation
      JOINT lShin
      {
        OFFSET 0 -36.8199 0.73152
        CHANNELS 3 Zrotation Xrotation Yrotation
        JOINT lFoot
        {
          OFFSET -0.73152 -45.1104 -5.12064
          CHANNELS 3 Zrotation Xrotation Yrotation
          End Site
          {
            OFFSET 1.1221 -3.69964 12.103
          }
        }
      }
    }
  }
}
MOTION
Frames:	5
Frame Time:	0.00833333
-43.9839 84.1002 6.21237 0.0 0.0 0.0 -1.51927 -0.0028294 -0.0413937 -0.418701 0.00102624 -0.0725117 2.36675e-14 0.0 -6.95746e-16 7.09785e-14 3.18055e-15 -2.09034e-15 -0.0 0.0 0.0 -0.0 0.0 0.0 1.22245e-14 3.5525e-17 -9.93923e-17 2.5248e-13 1.36043e-15 -5.76476e-15 4.30935e-12 -1.25433e-12 -1.78111e-13 4.93142e-11 1.44926e-12 -1.34856e-12 1.16322e-10 4.15528e-13 -3.28233e-12 2.0088e-10 7.12444e-13 -5.67888e-12 1.16328e-10 4.1546e-13 -3.28551e-12 7.73091 5.47488 0.417314 1.16321e-10 4.16056e-13 -3.28233e-12 2.90554 0.965183 0.102902 1.16327e-10 4.15957e-13 -3.28472e-12 10.2786 0.731801 0.0259123 1.16314e-10 4.18641e-13 -3.27597e-12 2.22167 -0.733487 -0.20892 1.2028e-14 3.96016e-17 -4.96962e-16 2.49394e-13 8.32411e-16 -7.35503e-15 4.31109e-12 1.31258e-12 -1.7175e-13 4.93211e-11 -1.14219e-12 -1.32947e-12 1.16345e-10 3.6693e-13 -3.27915e-12 2.00926e-10 6.36111e-13 -5.66616e-12 1.16338e-10 3.68547e-13 -3.26961e-12 -7.73091 5.47488 -0.417314 1.16344e-10 3.67155e-13 -3.28233e-12 -2.90554 0.965183 -0.102902 1.16334e-10 3.67553e-13 -3.27915e-12 -10.2786 0.731801 -0.0259123 1.16348e-10 3.67354e-13 -3.29505e-12 -2.22167 -0.733487 0.20892 -2.03217e-16 0.0 -3.88251e-19 -0.640506 -1.92323 -0.00643685 -0.0092549 -2.07856 -0.0764301 -0.512186 3.99733 0.140317 2.03217e-16 0.0 3.88251e-19 -1.66971 -6.49783 0.154695 -0.0023108 6.20801 -0.0679851 0.534012 0.285485 -0.0665642
-43.3225 82.0459 0.455353 -130.881 85.8801 -116.894 -0.747124 2.30037 0.794154 0.998715 0.636631 0.196555 0.54969 0.0788364 -0.591369 -1.72209 6.39735 -0.171684 -0.0 0.0 0.0 -0.0 0.0 0.0 2.26001e-14 1.58172e-13 7.56469e-15 24.3218 7.80867 9.11875 -2.66074 -1.00751 4.34897 0.14162 -8.36494 -1.13088 3.89482e-11 1.25204e-10 3.01005e-10 6.13855e-11 2.16112e-10 5.19756e-10 3.89546e-11 1.25204e-10 3.01003e-10 7.73091 5.47488 0.417314 3.89486e-11 1.25205e-10 3.01008e-10 2.90554 0.965183 0.102902 3.89549e-11 1.25204e-10 3.01002e-10 10.2786 0.731801 0.0259123 3.89408e-11 1.25206e-10 3.0101e-10 2.22167 -0.733487 -0.20892 2.24218e-14 1.58177e-13 7.22264e-15 -25.7066 20.5619 -9.31957 3.62381 -1.54356 -5.76691 -0.265311 -11.4695 1.49777 2.64486e-11 1.29908e-10 -2.19586e-10 5.31134e-11 2.24165e-10 -3.80896e-10 2.64427e-11 1.2991e-10 -2.19577e-10 -7.73091 5.47488 -0.417314 2.64488e-11 1.29908e-10 -2.19587e-10 -2.90554 0.965183 -0.102902 2.64389e-11 1.29908e-10 -2.19586e-10 -10.2786 0.731801 -0.0259123 2.64529e-11 1.29908e-10 -2.19599e-10 -2.22167 -0.733487 0.20892 -2.03217e-16 0.0 -3.88251e-19 -3.31301 -9.39204 -0.203502 -0.0101383 5.31551 0.0314239 -0.610638 1.8518 -2.95453 2.03217e-16 0.0 3.88251e-19 2.31164 -14.0951 1.79043 -0.0187797 12.837 -0.192883 0.316358 -1.53174 -0.738384
-43.3245 82.0464 0.456558 -130.636 85.8892 -116.641 -0.0049058 4.73515 1.6828 2.49362 1.30737 0.481382 1.13092 0.161538 -1.21669 -3.50088 13.1607 -0.360032 -0.0 0.0 0.0 -0.0 0.0 0.0 3.36356e-14 3.31599e-13 1.4474e-14 47.2807 15.4163 19.3021 -5.31159 -2.0553 8.9571 -0.0830526 -17.2082 -2.41099 -4.42003e-11 2.7211e-10 6.49393e-10 -8.89176e-11 4.69703e-10 1.12133e-09 -4.41939e-11 2.72111e-10 6.49391e-10 7.73091 5.47488 0.417314 -4.41991e-11 2.72112e-10 6.49399e-10 2.90554 0.965183 0.102902 -4.4192e-11 2.72111e-10 6.49389e-10 10.2786 0.731801 0.0259123 -4.42073e-11 2.72111e-10 6.49396e-10 2.22167 -0.733487 -0.20892 3.34781e-14 3.31604e-13 1.41914e-14 -43.7314 40.2958 -23.8234 7.11998 -3.12401 -11.8788 0.160066 -23.5761 3.29585 -6.14112e-11 2.79766e-10 -4.67827e-10 -9.01893e-11 4.82389e-10 -8.11098e-10 -6.14158e-11 2.79767e-10 -4.6782e-10 -7.73091 5.47488 -0.417314 -6.14105e-11 2.79765e-10 -4.67827e-10 -2.90554 0.965183 -0.102902 -6.14201e-11 2.79764e-10 -4.67827e-10 -10.2786 0.731801 -0.0259123 -6.14061e-11 2.79764e-10 -4.67839e-10 -2.22167 -0.733487 0.20892 -2.03217e-16 0.0 -3.88251e-19 -6.19801 -17.2869 -0.425963 -0.0418882 13.1323 0.148946 -0.966006 -0.408257 -6.2215 2.03217e-16 0.0 3.88251e-19 7.02663 -22.0982 3.6791 -0.00275624 19.8444 -0.335447 0.0397258 -3.4528 -1.45122
-43.3186 82.0479 0.451377 -130.491 85.9252 -116.523 0.594469 6.90101 2.48132 3.81563 1.90769 0.735061 1.65395 0.236408 -1.77412 -5.0455 19.1913 -0.541966 -0.0 0.0 0.0 -0.0 0.0 0.0 4.33512e-14 4.74445e-13 2.28928e-14 65.3934 20.9855 29.2036 -7.52726 -2.95295 13.0625 -0.652528 -25.0536 -3.70562 -1.15799e-10 3.7478e-10 9.09581e-10 -2.17603e-10 6.46911e-10 1.57063e-09 -1.15792e-10 3.74782e-10 9.09579e-10 7.73091 5.47488 0.417314 -1.15797e-10 3.74783e-10 9.0959e-10 2.90554 0.965183 0.102902 -1.15789e-10 3.74781e-10 9.09577e-10 10.2786 0.731801 0.0259123 -1.15805e-10 3.74781e-10 9.09582e-10 2.22167 -0.733487 -0.20892 4.32096e-14 4.74451e-13 2.26618e-14 -46.8224 52.7214 -46.717 9.95265 -4.44336 -17.3482 1.32208 -34.3041 5.33326 -1.53343e-10 3.88991e-10 -6.52199e-10 -2.42512e-10 6.71222e-10 -1.13136e-09 -1.53347e-10 3.88992e-10 -6.52192e-10 -7.73091 5.47488 -0.417314 -1.53342e-10 3.88989e-10 -6.52197e-10 -2.90554 0.965183 -0.102902 -1.53351e-10 3.88989e-10 -6.52199e-10 -10.2786 0.731801 -0.0259123 -1.53337e-10 3.88989e-10 -6.52208e-10 -2.22167 -0.733487 0.20892 -2.03217e-16 0.0 -3.88251e-19 -8.82534 -24.3285 -0.646905 -0.0989857 20.1034 0.262627 -1.50026 -2.40102 -9.147 2.03217e-16 0.0 3.88251e-19 11.7474 -29.1917 5.61746 0.0445457 26.0943 -0.477705 -0.247212 -5.16316 -2.08972
-43.316 82.0489 0.448288 -130.671 85.9289 -116.716 0.980795 8.40012 3.03905 4.71804 2.33214 0.910512 2.02811 0.291792 -2.16183 -6.09145 23.3912 -0.682479 -0.0 0.0 0.0 -0.0 0.0 0.0 4.97668e-14 5.40841e-13 3.50855e-14 76.8542 23.8134 36.5882 -8.97682 -3.54229 15.8961 -1.2899 -30.4437 -4.73797 -1.58521e-10 3.6686e-10 9.49268e-10 -2.92245e-10 6.33156e-10 1.63923e-09 -1.58515e-10 3.66863e-10 9.49265e-10 7.73091 5.47488 0.417314 -1.58519e-10 3.66863e-10 9.49278e-10 2.90554 0.965183 0.102902 -1.58511e-10 3.66862e-10 9.49264e-10 10.2786 0.731801 0.0259123 -1.58527e-10 3.66861e-10 9.49268e-10 2.22167 -0.733487 -0.20892 4.96288e-14 5.40845e-13 3.48867e-14 -41.2659 55.501 -68.8105 11.7704 -5.28887 -21.1663 2.7399 -41.6831 7.18902 -2.55456e-10 3.96636e-10 -6.76895e-10 -4.17386e-10 6.86577e-10 -1.17676e-09 -2.55459e-10 3.96636e-10 -6.76889e-10 -7.73091 5.47488 -0.417314 -2.55455e-10 3.96634e-10 -6.76892e-10 -2.90554 0.965183 -0.102902 -2.55463e-10 3.96633e-10 -6.76894e-10 -10.2786 0.731801 -0.0259123 -2.55449e-10 3.96633e-10 -6.76902e-10 -2.22167 -0.733487 0.20892 -2.03217e-16 0.0 -3.88251e-19 -10.6854 -29.2379 -0.818438 -0.156903 24.9606 0.350468 -1.99484 -3.77083 -11.2041 2.03217e-16 0.0 3.88251e-19 15.393 -34.0993 7.19113 0.098994 30.4511 -0.588759 -0.468986 -6.34968 -2.5349
